# xmcd
#
# Track frame offsets:
#	150
#	18494
#	32134
#	50952
#	65599
#	82330
#	98830
#	120862
#	138778
#	157848
#	173781
#	187073
#	217770
#
# Disc length: 3890 seconds
#
# Revision: 2
# Processed by: cddbd v1.5.2PL0 Copyright (c) Steve Scherf et al.
# Submitted via: audiograbber 1.83.01
#
DISCID=ae0f300d
DTITLE=Various Artist - ASK75-2
DYEAR=2009
DGENRE=Country
TTITLE0=Miranda Lambert - Bring Me Down
TTITLE1=Miranda Lambert - Crazy Ex-Girlfriend
TTITLE2=Miranda Lambert - Famous In A Small Town
TTITLE3=Miranda Lambert - Gunpowder and Lead
TTITLE4=Miranda Lambert - Me and Charlie Talking
TTITLE5=Miranda Lambert - More Like Her
TTITLE6=Taylor Swift - Change
TTITLE7=Taylor Swift - Fearless (Acoustic)
TTITLE8=Taylor Swift - Love Story
TTITLE9=Taylor Swift - Our Song
TTITLE10=Taylor Swift - Picture To Burn
TTITLE11=Taylor Swift - Should've Said No
TTITLE12=Datum - Data Track
EXTD=Acyual Correct Entry of Data.. The existing Entry is Totally backwards
EXTT0=
EXTT1=
EXTT2=
EXTT3=
EXTT4=
EXTT5=
EXTT6=
EXTT7=
EXTT8=
EXTT9=
EXTT10=
EXTT11=
EXTT12=
PLAYORDER=
